<svg xmlns="http://www.w3.org/2000/svg" xmlns:xlink="http://www.w3.org/1999/xlink" width="173" zoomAndPan="magnify" viewBox="0 0 129.75 39.749999" height="53" preserveAspectRatio="xMidYMid meet" version="1.2"><defs><clipPath id="0d6fdc9ebd"><path d="M 0.808594 22.226562 L 3.757812 22.226562 L 3.757812 25.175781 L 0.808594 25.175781 Z M 0.808594 22.226562 "/></clipPath><clipPath id="87a7b24aa3"><path d="M 24.085938 0.78125 L 27.035156 0.78125 L 27.035156 3.792969 L 24.085938 3.792969 Z M 24.085938 0.78125 "/></clipPath><clipPath id="7a32d556fe"><path d="M 36.097656 13.90625 L 39.121094 13.90625 L 39.121094 16.855469 L 36.097656 16.855469 Z M 36.097656 13.90625 "/></clipPath><clipPath id="415d4607bf"><path d="M 12.816406 35.289062 L 15.871094 35.289062 L 15.871094 38.296875 L 12.816406 38.296875 Z M 12.816406 35.289062 "/></clipPath></defs><g id="c6aa0c30e6"><g clip-rule="nonzero" clip-path="url(#0d6fdc9ebd)"><path style=" stroke:none;fill-rule:nonzero;fill:#761fe3;fill-opacity:1;" d="M 3.347656 22.714844 C 3.613281 23.015625 3.746094 23.394531 3.730469 23.761719 C 3.710938 24.144531 3.5625 24.507812 3.265625 24.773438 C 2.667969 25.320312 1.753906 25.289062 1.207031 24.691406 C 0.941406 24.390625 0.808594 24.011719 0.824219 23.644531 C 0.839844 23.28125 0.992188 22.898438 1.289062 22.632812 C 1.871094 22.070312 2.800781 22.117188 3.347656 22.714844 Z M 3.347656 22.714844 "/></g><path style=" stroke:none;fill-rule:nonzero;fill:#761fe3;fill-opacity:1;" d="M 23.824219 13.488281 C 23.824219 13.523438 23.804688 13.574219 23.804688 13.605469 C 23.789062 13.9375 23.855469 14.269531 23.988281 14.566406 L 19.476562 18.734375 L 14.960938 22.898438 C 14.628906 22.714844 14.265625 22.632812 13.898438 22.632812 L 9.019531 8.414062 C 9.21875 8.296875 9.417969 8.164062 9.601562 7.996094 C 9.785156 7.832031 9.933594 7.648438 10.050781 7.449219 Z M 23.824219 13.488281 "/><path style=" stroke:none;fill-rule:nonzero;fill:#761fe3;fill-opacity:1;" d="M 4.90625 24.574219 L 11.859375 25.222656 C 11.941406 25.570312 12.109375 25.902344 12.375 26.183594 C 12.640625 26.484375 12.972656 26.664062 13.320312 26.78125 L 13.46875 32.339844 L 13.535156 34.761719 C 13.335938 34.847656 13.136719 34.960938 12.972656 35.09375 L 4.277344 25.652344 C 4.558594 25.339844 4.773438 24.972656 4.90625 24.574219 Z M 4.90625 24.574219 "/><path style=" stroke:none;fill-rule:nonzero;fill:#761fe3;fill-opacity:0.5;" d="M 7.609375 8.746094 C 7.660156 8.746094 7.695312 8.746094 7.746094 8.746094 L 12.65625 23.046875 C 12.605469 23.082031 12.554688 23.132812 12.488281 23.179688 C 12.273438 23.378906 12.089844 23.628906 11.976562 23.894531 L 5.007812 23.246094 C 4.921875 22.714844 4.675781 22.21875 4.308594 21.804688 C 3.945312 21.421875 3.496094 21.140625 3 21.007812 L 7.03125 8.644531 C 7.214844 8.710938 7.410156 8.746094 7.609375 8.746094 Z M 7.609375 8.746094 "/><path style=" stroke:none;fill-rule:nonzero;fill:#761fe3;fill-opacity:1;" d="M 16.023438 24.972656 C 16.058594 24.609375 16.007812 24.210938 15.839844 23.863281 L 24.882812 15.53125 C 25.214844 15.714844 25.597656 15.8125 25.964844 15.796875 L 31.191406 30.464844 C 30.992188 30.566406 30.808594 30.699219 30.644531 30.863281 C 30.476562 31.011719 30.328125 31.195312 30.210938 31.378906 Z M 16.023438 24.972656 "/><path style=" stroke:none;fill-rule:nonzero;fill:#761fe3;fill-opacity:1;" d="M 23.523438 4.132812 C 23.9375 4.578125 24.46875 4.878906 25.066406 4.976562 L 25.066406 5.210938 L 25.214844 11.679688 C 24.953125 11.78125 24.703125 11.914062 24.484375 12.113281 C 24.4375 12.164062 24.386719 12.210938 24.335938 12.261719 L 19.625 10.203125 L 10.480469 6.207031 C 10.480469 6.15625 10.5 6.121094 10.5 6.074219 C 10.5 5.890625 10.5 5.691406 10.464844 5.507812 L 22.808594 2.65625 C 22.894531 3.203125 23.140625 3.714844 23.523438 4.132812 Z M 23.523438 4.132812 "/><path style=" stroke:none;fill-rule:nonzero;fill:#761fe3;fill-opacity:0.5;" d="M 35.769531 13.324219 C 35.503906 13.558594 35.304688 13.839844 35.15625 14.15625 L 27.988281 13.273438 C 27.921875 12.910156 27.738281 12.542969 27.472656 12.246094 C 27.207031 11.964844 26.875 11.765625 26.527344 11.648438 L 26.378906 4.976562 L 26.378906 4.894531 C 26.777344 4.777344 27.140625 4.5625 27.441406 4.28125 Z M 35.769531 13.324219 "/><path style=" stroke:none;fill-rule:nonzero;fill:#761fe3;fill-opacity:1;" d="M 32.648438 30.132812 C 32.601562 30.132812 32.535156 30.132812 32.484375 30.132812 L 27.222656 15.363281 C 27.273438 15.332031 27.324219 15.296875 27.355469 15.25 C 27.574219 15.050781 27.722656 14.835938 27.839844 14.585938 L 34.875 15.449219 C 34.890625 16.128906 35.140625 16.757812 35.605469 17.257812 C 35.953125 17.636719 36.382812 17.902344 36.863281 18.035156 L 33.164062 30.199219 C 33.015625 30.167969 32.832031 30.132812 32.648438 30.132812 Z M 32.648438 30.132812 "/><path style=" stroke:none;fill-rule:nonzero;fill:#761fe3;fill-opacity:0.5;" d="M 16.023438 35.308594 C 15.691406 34.960938 15.277344 34.730469 14.847656 34.628906 L 14.648438 26.730469 C 14.910156 26.632812 15.160156 26.5 15.375 26.300781 C 15.425781 26.265625 15.460938 26.21875 15.507812 26.167969 L 29.796875 32.621094 C 29.796875 32.671875 29.78125 32.738281 29.78125 32.789062 C 29.78125 32.96875 29.78125 33.152344 29.8125 33.335938 L 16.554688 36.289062 C 16.457031 35.925781 16.289062 35.59375 16.023438 35.308594 Z M 16.023438 35.308594 "/><path style=" stroke:none;fill-rule:nonzero;fill:#761fe3;fill-opacity:0.5;" d="M 9.171875 6.023438 C 9.152344 6.40625 9.003906 6.769531 8.707031 7.035156 C 8.109375 7.582031 7.195312 7.550781 6.648438 6.953125 C 6.382812 6.652344 6.25 6.273438 6.265625 5.90625 C 6.285156 5.523438 6.433594 5.160156 6.730469 4.894531 C 7.328125 4.347656 8.242188 4.378906 8.789062 4.976562 C 9.070312 5.277344 9.1875 5.65625 9.171875 6.023438 Z M 9.171875 6.023438 "/><g clip-rule="nonzero" clip-path="url(#87a7b24aa3)"><path style=" stroke:none;fill-rule:nonzero;fill:#761fe3;fill-opacity:1;" d="M 26.558594 3.316406 C 25.964844 3.867188 25.050781 3.832031 24.503906 3.234375 C 24.238281 2.9375 24.105469 2.554688 24.121094 2.191406 C 24.136719 1.824219 24.289062 1.441406 24.585938 1.175781 C 25.183594 0.628906 26.097656 0.664062 26.644531 1.261719 C 26.910156 1.558594 27.042969 1.941406 27.023438 2.304688 C 27.007812 2.671875 26.84375 3.035156 26.558594 3.316406 Z M 26.558594 3.316406 "/></g><g clip-rule="nonzero" clip-path="url(#7a32d556fe)"><path style=" stroke:none;fill-rule:nonzero;fill:#761fe3;fill-opacity:0.5;" d="M 36.582031 16.359375 C 36.316406 16.0625 36.183594 15.679688 36.199219 15.316406 C 36.21875 14.933594 36.367188 14.570312 36.664062 14.304688 C 37.261719 13.753906 38.175781 13.789062 38.722656 14.386719 C 38.988281 14.683594 39.121094 15.066406 39.105469 15.429688 C 39.089844 15.8125 38.9375 16.179688 38.640625 16.445312 C 38.058594 16.992188 37.128906 16.957031 36.582031 16.359375 Z M 36.582031 16.359375 "/></g><path style=" stroke:none;fill-rule:nonzero;fill:#761fe3;fill-opacity:1;" d="M 31.089844 32.855469 C 31.105469 32.472656 31.257812 32.109375 31.554688 31.84375 C 32.152344 31.296875 33.066406 31.328125 33.613281 31.925781 C 33.878906 32.226562 34.011719 32.605469 33.996094 32.972656 C 33.976562 33.351562 33.828125 33.71875 33.53125 33.984375 C 32.933594 34.53125 32.019531 34.496094 31.472656 33.902344 C 31.191406 33.601562 31.074219 33.21875 31.089844 32.855469 Z M 31.089844 32.855469 "/><g clip-rule="nonzero" clip-path="url(#415d4607bf)"><path style=" stroke:none;fill-rule:nonzero;fill:#761fe3;fill-opacity:0.5;" d="M 13.367188 35.757812 C 13.964844 35.210938 14.878906 35.246094 15.425781 35.84375 C 15.691406 36.140625 15.824219 36.523438 15.808594 36.886719 C 15.792969 37.253906 15.640625 37.632812 15.34375 37.898438 C 14.746094 38.449219 13.832031 38.414062 13.285156 37.816406 C 13.019531 37.519531 12.886719 37.136719 12.90625 36.769531 C 12.921875 36.40625 13.085938 36.023438 13.367188 35.757812 Z M 13.367188 35.757812 "/></g><g style="fill:#ffffff;fill-opacity:1;"><g transform="translate(42.112346, 27.936245)"><path style="stroke:none" d="M 12.96875 0 L 0.6875 0 L 0.6875 -2.921875 L 9.078125 -13.734375 L 9 -13.96875 L 1.015625 -13.96875 L 1.015625 -16.75 L 12.890625 -16.75 L 12.890625 -13.828125 L 4.5 -3.015625 L 4.578125 -2.765625 L 12.96875 -2.765625 Z M 12.96875 0 "/></g></g><g style="fill:#ffffff;fill-opacity:1;"><g transform="translate(55.786241, 27.936245)"><path style="stroke:none" d="M 5.484375 0 L 2.171875 0 L 2.171875 -16.75 L 5.484375 -16.75 Z M 5.484375 0 "/></g></g><g style="fill:#ffffff;fill-opacity:1;"><g transform="translate(63.459197, 27.936245)"><path style="stroke:none" d="M 9.15625 0.234375 C 7.613281 0.234375 6.253906 -0.0820312 5.078125 -0.71875 C 3.898438 -1.363281 2.976562 -2.328125 2.3125 -3.609375 C 1.644531 -4.898438 1.3125 -6.488281 1.3125 -8.375 C 1.3125 -10.257812 1.644531 -11.84375 2.3125 -13.125 C 2.976562 -14.414062 3.898438 -15.378906 5.078125 -16.015625 C 6.253906 -16.660156 7.613281 -16.984375 9.15625 -16.984375 C 10.757812 -16.984375 12.125 -16.664062 13.25 -16.03125 C 14.375 -15.40625 15.179688 -14.445312 15.671875 -13.15625 L 13.25 -11.6875 L 12.96875 -11.6875 C 12.601562 -12.5625 12.113281 -13.1875 11.5 -13.5625 C 10.882812 -13.9375 10.101562 -14.125 9.15625 -14.125 C 7.757812 -14.125 6.671875 -13.664062 5.890625 -12.75 C 5.117188 -11.832031 4.734375 -10.375 4.734375 -8.375 C 4.734375 -6.375 5.117188 -4.914062 5.890625 -4 C 6.671875 -3.082031 7.757812 -2.625 9.15625 -2.625 C 11.320312 -2.625 12.648438 -3.679688 13.140625 -5.796875 L 13.4375 -5.796875 L 15.875 -4.515625 C 15.414062 -2.929688 14.628906 -1.742188 13.515625 -0.953125 C 12.410156 -0.160156 10.957031 0.234375 9.15625 0.234375 Z M 9.15625 0.234375 "/></g></g><g style="fill:#ffffff;fill-opacity:1;"><g transform="translate(79.881613, 27.936245)"><path style="stroke:none" d="M 2.171875 0 L 2.171875 -16.75 L 9.328125 -16.75 C 10.359375 -16.75 11.226562 -16.582031 11.9375 -16.25 C 12.65625 -15.925781 13.195312 -15.460938 13.5625 -14.859375 C 13.925781 -14.265625 14.109375 -13.5625 14.109375 -12.75 C 14.109375 -12.007812 13.925781 -11.351562 13.5625 -10.78125 C 13.207031 -10.21875 12.695312 -9.765625 12.03125 -9.421875 L 12.03125 -9.1875 C 13.082031 -8.90625 13.894531 -8.398438 14.46875 -7.671875 C 15.039062 -6.953125 15.328125 -6.066406 15.328125 -5.015625 C 15.328125 -3.410156 14.84375 -2.171875 13.875 -1.296875 C 12.90625 -0.429688 11.472656 0 9.578125 0 Z M 8.640625 -10.0625 C 10.179688 -10.0625 10.953125 -10.757812 10.953125 -12.15625 C 10.953125 -12.863281 10.757812 -13.390625 10.375 -13.734375 C 9.988281 -14.078125 9.410156 -14.25 8.640625 -14.25 L 5.484375 -14.25 L 5.484375 -10.0625 Z M 9.234375 -2.625 C 11.066406 -2.625 11.984375 -3.453125 11.984375 -5.109375 C 11.984375 -6.773438 11.066406 -7.609375 9.234375 -7.609375 L 5.484375 -7.609375 L 5.484375 -2.625 Z M 9.234375 -2.625 "/></g></g><g style="fill:#ffffff;fill-opacity:1;"><g transform="translate(96.258222, 27.936245)"><path style="stroke:none" d="M 9.125 0.234375 C 7.59375 0.234375 6.238281 -0.078125 5.0625 -0.703125 C 3.894531 -1.328125 2.976562 -2.28125 2.3125 -3.5625 C 1.644531 -4.851562 1.3125 -6.457031 1.3125 -8.375 C 1.3125 -10.289062 1.644531 -11.890625 2.3125 -13.171875 C 2.976562 -14.460938 3.894531 -15.421875 5.0625 -16.046875 C 6.238281 -16.671875 7.59375 -16.984375 9.125 -16.984375 C 10.65625 -16.984375 12.003906 -16.671875 13.171875 -16.046875 C 14.347656 -15.421875 15.265625 -14.460938 15.921875 -13.171875 C 16.585938 -11.890625 16.921875 -10.289062 16.921875 -8.375 C 16.921875 -6.457031 16.585938 -4.851562 15.921875 -3.5625 C 15.265625 -2.269531 14.347656 -1.3125 13.171875 -0.6875 C 12.003906 -0.0703125 10.65625 0.234375 9.125 0.234375 Z M 9.125 -2.640625 C 10.539062 -2.640625 11.625 -3.09375 12.375 -4 C 13.125 -4.914062 13.5 -6.375 13.5 -8.375 C 13.5 -10.375 13.125 -11.832031 12.375 -12.75 C 11.625 -13.664062 10.539062 -14.125 9.125 -14.125 C 7.695312 -14.125 6.609375 -13.664062 5.859375 -12.75 C 5.109375 -11.832031 4.734375 -10.375 4.734375 -8.375 C 4.734375 -6.375 5.109375 -4.914062 5.859375 -4 C 6.609375 -3.09375 7.695312 -2.640625 9.125 -2.640625 Z M 9.125 -2.640625 "/></g></g><g style="fill:#ffffff;fill-opacity:1;"><g transform="translate(114.100696, 27.936245)"><path style="stroke:none" d="M 13.421875 -16.75 L 13.421875 -13.953125 L 8.59375 -13.953125 L 8.59375 0 L 5.296875 0 L 5.296875 -13.953125 L 0.453125 -13.953125 L 0.453125 -16.75 Z M 13.421875 -16.75 "/></g></g></g></svg>